<svg width="16" height="15" viewBox="0 0 16 15" xmlns="http://www.w3.org/2000/svg">
  <title>
    heart-empty
  </title>
  <path d="M14.857 4.607c0 1.634-1.652 3.152-1.678 3.179L8 12.776l-5.187-5c-.018-.017-1.67-1.535-1.67-3.169 0-2.509 1.696-3.036 3.125-3.036 1.33 0 2.83 1.438 3.295 1.991.214.26.66.26.875 0 .464-.553 1.964-1.99 3.294-1.99 1.429 0 3.125.526 3.125 3.035zm1.143 0C16 1.991 14.402.43 11.732.43 10.17.429 8.705 1.66 8 2.357 7.295 1.661 5.83.43 4.268.43 1.598.429 0 1.99 0 4.607c0 2.143 1.964 3.938 2.036 4l5.571 5.375c.107.107.25.16.393.16.143 0 .286-.053.393-.16l5.562-5.357C14.035 8.545 16 6.75 16 4.607z" fill="#000" fill-rule="evenodd"/>
</svg>
