<svg width="19" height="18" viewBox="0 0 19 18" xmlns="http://www.w3.org/2000/svg">
  <title>
    star-full
  </title>
  <path d="M18.571 7.078c0-.335-.357-.469-.625-.513l-5.602-.815L9.833.672c-.1-.212-.29-.458-.547-.458-.257 0-.447.246-.547.458L6.228 5.75l-5.603.815C.346 6.609 0 6.743 0 7.078c0 .201.145.39.279.536l4.063 3.95-.96 5.581c-.011.078-.023.145-.023.223 0 .29.145.558.47.558.155 0 .3-.055.446-.134l5.01-2.634 5.012 2.634c.134.079.29.134.446.134.324 0 .458-.268.458-.558 0-.078 0-.145-.011-.223l-.96-5.58 4.051-3.951c.145-.145.29-.335.29-.536z" fill="#F8E81C" fill-rule="evenodd"/>
</svg>
