<svg xmlns="http://www.w3.org/2000/svg" width="24" height="24" viewBox="0 0 64 64">
  <g transform="matrix(1 0 0 -1 0 64)">
    <defs>
      <clipPath id="a">
        <path d="M48.71 20.946L62.829 6.828c1.563-1.562 1.563-4.094 0-5.656-1.562-1.563-4.094-1.563-5.656 0L43.054 15.289C38.567 11.966 33.013 10 27 10 12.088 10 0 22.088 0 37s12.088 27 27 27 27-12.088 27-27c0-6.013-1.966-11.567-5.29-16.054zM46 37c0 10.493-8.507 19-19 19S8 47.493 8 37s8.507-19 19-19 19 8.507 19 19z" stroke-miterlimit="0" fill="none"/>
      </clipPath>
    </defs>
    <path d="M48.71 20.946L62.829 6.828c1.563-1.562 1.563-4.094 0-5.656-1.562-1.563-4.094-1.563-5.656 0L43.054 15.289C38.567 11.966 33.013 10 27 10 12.088 10 0 22.088 0 37s12.088 27 27 27 27-12.088 27-27c0-6.013-1.966-11.567-5.29-16.054zM46 37c0 10.493-8.507 19-19 19S8 47.493 8 37s8.507-19 19-19 19 8.507 19 19z" fill="none"/>
    <g clip-path="url(#a)">
      <path d="M48.71 20.946L62.829 6.828c1.563-1.562 1.563-4.094 0-5.656-1.562-1.563-4.094-1.563-5.656 0L43.054 15.289C38.567 11.966 33.013 10 27 10 12.088 10 0 22.088 0 37s12.088 27 27 27 27-12.088 27-27c0-6.013-1.966-11.567-5.29-16.054zM46 37c0 10.493-8.507 19-19 19S8 47.493 8 37s8.507-19 19-19 19 8.507 19 19z" fill="none"/>
      <path d="M-5 69h74V-5H-5z" fill="#2A2D33"/>
    </g>
  </g>
</svg>
